<?xml version="1.0" encoding="UTF-8" standalone="no"?>
<!-- Created with Inkscape (http://www.inkscape.org/) -->

<svg
   width="61.663422mm"
   height="9.6096401mm"
   viewBox="0 0 61.663421 9.6096402"
   version="1.1"
   id="svg5"
   inkscape:version="1.1.2 (0a00cf5339, 2022-02-04)"
   sodipodi:docname="logo.svg"
   xmlns:inkscape="http://www.inkscape.org/namespaces/inkscape"
   xmlns:sodipodi="http://sodipodi.sourceforge.net/DTD/sodipodi-0.dtd"
   xmlns="http://www.w3.org/2000/svg"
   xmlns:svg="http://www.w3.org/2000/svg">
  <sodipodi:namedview
     id="namedview7"
     pagecolor="#ffffff"
     bordercolor="#666666"
     borderopacity="1.0"
     inkscape:pageshadow="2"
     inkscape:pageopacity="0.0"
     inkscape:pagecheckerboard="0"
     inkscape:document-units="mm"
     showgrid="false"
     inkscape:zoom="2.4835316"
     inkscape:cx="134.28458"
     inkscape:cy="-29.997605"
     inkscape:window-width="894"
     inkscape:window-height="912"
     inkscape:window-x="982"
     inkscape:window-y="88"
     inkscape:window-maximized="0"
     inkscape:current-layer="layer1" />
  <defs
     id="defs2" />
  <g
     inkscape:label="Layer 1"
     inkscape:groupmode="layer"
     id="layer1"
     transform="translate(-334.59903,-158.56476)">
    <g
       id="g38548"
       transform="translate(-3.7033438,27.239425)">
      <path
         d="m 338.38703,138.73364 v -4.34444 h 1.60866 v 4.34444 z m 0.8255,-5.23873 q -0.381,0 -0.64558,-0.26458 -0.26458,-0.26988 -0.26458,-0.64029 0,-0.37042 0.26458,-0.64029 0.26987,-0.27517 0.64558,-0.27517 0.24871,0 0.45508,0.127 0.20638,0.12171 0.33338,0.32808 0.127,0.20638 0.127,0.46038 0,0.37041 -0.26988,0.64029 -0.26987,0.26458 -0.64558,0.26458 z"
         id="path33381"
         style="font-size:10.5833px;line-height:1.25;font-family:'League Spartan';-inkscape-font-specification:'League Spartan, @wght=700';font-variation-settings:'wght' 700;word-spacing:0px;fill:#ffd42a;fill-opacity:1;stroke-width:0.264583" />
      <path
         d="m 342.38751,136.90273 q 0.0159,0.23283 0.14817,0.41275 0.13229,0.17992 0.36512,0.28575 0.23813,0.10054 0.56092,0.10054 0.30691,0 0.55033,-0.0635 0.24871,-0.0635 0.42862,-0.15875 0.18521,-0.0953 0.28575,-0.19579 l 0.62441,0.99483 q -0.13229,0.14288 -0.3757,0.28046 -0.23813,0.13229 -0.62971,0.21696 -0.39158,0.0847 -0.98954,0.0847 -0.71966,0 -1.28058,-0.26987 -0.56091,-0.26988 -0.8837,-0.79375 -0.32279,-0.52387 -0.32279,-1.28058 0,-0.635 0.27516,-1.143 0.28046,-0.51329 0.80963,-0.80962 0.52916,-0.30162 1.27528,-0.30162 0.70908,0 1.22767,0.25929 0.52387,0.25929 0.80433,0.77258 0.28575,0.508 0.28575,1.27 0,0.0423 -0.005,0.16933 0,0.127 -0.0106,0.16933 z m 1.6457,-0.84137 q -0.005,-0.16933 -0.0899,-0.33337 -0.0847,-0.16934 -0.254,-0.27517 -0.16934,-0.11112 -0.43392,-0.11112 -0.26458,0 -0.44979,0.10583 -0.17991,0.10054 -0.27516,0.26458 -0.0953,0.16404 -0.10584,0.34925 z"
         id="path33383"
         style="font-size:10.5833px;line-height:1.25;font-family:'League Spartan';-inkscape-font-specification:'League Spartan, @wght=700';font-variation-settings:'wght' 700;word-spacing:0px;fill:#ffd42a;fill-opacity:1;stroke-width:0.264583" />
      <path
         d="m 347.98607,138.73364 h -1.61396 v -7.28131 h 1.61396 z"
         id="path33385"
         style="font-size:10.5833px;line-height:1.25;font-family:'League Spartan';-inkscape-font-specification:'League Spartan, @wght=700';font-variation-settings:'wght' 700;word-spacing:0px;fill:#ffd42a;fill-opacity:1;stroke-width:0.264583" />
      <path
         d="m 348.6528,134.3892 h 0.74083 v -1.78329 h 1.59278 v 1.78329 h 0.97367 v 1.32291 h -0.97367 v 1.21179 q 0,0.26987 0.0794,0.43921 0.0794,0.16404 0.29104,0.16404 0.14287,0 0.24341,-0.0635 0.10055,-0.0635 0.12171,-0.0847 l 0.55033,1.143 q -0.037,0.0317 -0.23283,0.11641 -0.1905,0.0847 -0.48683,0.15346 -0.29633,0.0688 -0.66146,0.0688 -0.65087,0 -1.0742,-0.36512 -0.42333,-0.37042 -0.42333,-1.13771 v -1.6457 h -0.74083 z"
         id="path33387"
         style="font-size:10.5833px;line-height:1.25;font-family:'League Spartan';-inkscape-font-specification:'League Spartan, @wght=700';font-variation-settings:'wght' 700;word-spacing:0px;fill:#ffd42a;fill-opacity:1;stroke-width:0.264583" />
      <path
         d="m 354.81755,134.2622 q 0.42863,0 0.78317,0.0741 0.35454,0.0688 0.59266,0.15875 0.24342,0.09 0.31221,0.14817 l -0.52387,0.9472 q -0.10054,-0.0741 -0.37571,-0.1905 -0.26987,-0.11641 -0.60325,-0.11641 -0.254,0 -0.42862,0.0794 -0.17463,0.0741 -0.17463,0.23813 0,0.16404 0.1905,0.26458 0.19579,0.0953 0.56092,0.16933 0.3175,0.0635 0.64558,0.20108 0.32808,0.13759 0.54504,0.40746 0.22225,0.26458 0.22225,0.70908 0,0.45508 -0.19579,0.75142 -0.19579,0.29633 -0.51858,0.46037 -0.3228,0.16404 -0.6985,0.22754 -0.37571,0.0688 -0.73025,0.0688 -0.49742,0 -0.86783,-0.09 -0.36512,-0.0899 -0.59267,-0.20637 -0.22754,-0.11642 -0.31749,-0.18521 l 0.51858,-1.05833 q 0.13758,0.11642 0.44979,0.26458 0.3122,0.14288 0.66145,0.14288 0.33867,0 0.52388,-0.10054 0.1852,-0.10054 0.1852,-0.26458 0,-0.1323 -0.0899,-0.21167 -0.09,-0.0794 -0.254,-0.13758 -0.16404,-0.0582 -0.39688,-0.10584 -0.21166,-0.0423 -0.44979,-0.13229 -0.23812,-0.09 -0.44979,-0.24341 -0.21166,-0.15875 -0.34395,-0.39688 -0.1323,-0.23812 -0.1323,-0.57679 0,-0.43391 0.28046,-0.71966 0.28046,-0.28575 0.72496,-0.42863 0.4445,-0.14816 0.9472,-0.14816 z"
         id="path33389"
         style="font-size:10.5833px;line-height:1.25;font-family:'League Spartan';-inkscape-font-specification:'League Spartan, @wght=700';font-variation-settings:'wght' 700;word-spacing:0px;fill:#ffd42a;fill-opacity:1;stroke-width:0.264583" />
      <path
         d="m 356.97651,134.3892 h 0.74083 v -1.78329 h 1.59279 v 1.78329 h 0.97366 v 1.32291 h -0.97366 v 1.21179 q 0,0.26987 0.0794,0.43921 0.0794,0.16404 0.29104,0.16404 0.14288,0 0.24342,-0.0635 0.10054,-0.0635 0.12171,-0.0847 l 0.55033,1.143 q -0.037,0.0317 -0.23283,0.11641 -0.1905,0.0847 -0.48684,0.15346 -0.29633,0.0688 -0.66145,0.0688 -0.65087,0 -1.07421,-0.36512 -0.42333,-0.37042 -0.42333,-1.13771 v -1.6457 h -0.74083 z"
         id="path33391"
         style="font-size:10.5833px;line-height:1.25;font-family:'League Spartan';-inkscape-font-specification:'League Spartan, @wght=700';font-variation-settings:'wght' 700;word-spacing:0px;fill:#f2f2f2;stroke-width:0.264583" />
      <path
         d="m 362.71794,136.40003 q 0,0.51858 0.19579,0.83078 0.19579,0.30692 0.65616,0.30692 0.47096,0 0.66146,-0.30692 0.19579,-0.3122 0.19579,-0.83078 v -2.01083 h 1.58749 v 2.18016 q 0,0.6985 -0.29104,1.21708 -0.28575,0.51329 -0.83079,0.79374 -0.54504,0.28046 -1.32291,0.28046 -0.77258,0 -1.31762,-0.28046 -0.54504,-0.28045 -0.83079,-0.79374 -0.28575,-0.51858 -0.28575,-1.21708 v -2.18016 h 1.58221 z"
         id="path33393"
         style="font-size:10.5833px;line-height:1.25;font-family:'League Spartan';-inkscape-font-specification:'League Spartan, @wght=700';font-variation-settings:'wght' 700;word-spacing:0px;fill:#f2f2f2;stroke-width:0.264583" />
      <path
         d="m 368.85623,138.86064 q -0.6297,0 -1.09537,-0.30691 -0.46566,-0.31221 -0.72495,-0.83079 -0.254,-0.52388 -0.254,-1.15887 0,-0.635 0.254,-1.15358 0.25929,-0.52388 0.72495,-0.83608 0.46567,-0.31221 1.09537,-0.31221 0.41804,0 0.74083,0.13229 0.3228,0.127 0.52388,0.30692 0.20108,0.17462 0.24341,0.32279 v -3.57187 h 1.60867 v 7.28131 h -1.59279 v -0.70379 q -0.10054,0.19579 -0.32808,0.39159 -0.22754,0.19049 -0.53446,0.3122 -0.30692,0.127 -0.66146,0.127 z m 0.49213,-1.2647 q 0.29104,0 0.51858,-0.13229 0.23283,-0.13229 0.36512,-0.36513 0.13229,-0.23812 0.13229,-0.53445 0,-0.29634 -0.13229,-0.52917 -0.13229,-0.23812 -0.36512,-0.37041 -0.22754,-0.13759 -0.51858,-0.13759 -0.28046,0 -0.508,0.13759 -0.22225,0.13229 -0.35454,0.37041 -0.127,0.23283 -0.127,0.52917 0,0.29633 0.127,0.53445 0.13229,0.23284 0.35454,0.36513 0.22754,0.13229 0.508,0.13229 z"
         id="path33395"
         style="font-size:10.5833px;line-height:1.25;font-family:'League Spartan';-inkscape-font-specification:'League Spartan, @wght=700';font-variation-settings:'wght' 700;word-spacing:0px;fill:#f2f2f2;stroke-width:0.264583" />
      <path
         d="m 375.09507,137.34194 1.17475,-2.95274 h 1.57691 l -2.98449,6.54577 h -1.60866 l 1.00541,-2.20133 -1.81503,-4.34444 h 1.60337 z"
         id="path33397"
         style="font-size:10.5833px;line-height:1.25;font-family:'League Spartan';-inkscape-font-specification:'League Spartan, @wght=700';font-variation-settings:'wght' 700;word-spacing:0px;fill:#f2f2f2;stroke-width:0.264583" />
      <path
         d="m 378.01606,134.3892 h 0.71966 v -1.14829 q 0,-0.635 0.26988,-1.05833 0.26987,-0.42333 0.69849,-0.64029 0.42863,-0.21696 0.889,-0.21696 0.5715,0 0.86783,0.15346 0.30163,0.15346 0.381,0.22754 l -0.61383,1.18004 q -0.0265,-0.0423 -0.13229,-0.12171 -0.10583,-0.0794 -0.28046,-0.0794 -0.11112,0 -0.22225,0.0582 -0.11112,0.0582 -0.18521,0.20638 -0.0688,0.14817 -0.0688,0.43391 v 1.00542 h 1.07421 v 1.32291 h -1.07421 v 3.02153 h -1.60337 v -3.02153 h -0.71966 z m 5.67794,4.34444 h -1.61395 v -7.28131 h 1.61395 z"
         id="path33399"
         style="font-size:10.5833px;line-height:1.25;font-family:'League Spartan';-inkscape-font-specification:'League Spartan, @wght=700';font-variation-settings:'wght' 700;word-spacing:0px;fill:#f2f2f2;stroke-width:0.264583" />
      <path
         d="m 386.94306,138.86064 q -0.71437,0 -1.27,-0.29104 -0.55033,-0.29633 -0.86783,-0.80962 -0.3122,-0.51858 -0.3122,-1.18533 0,-0.66675 0.3122,-1.18533 0.3175,-0.52387 0.86783,-0.8255 0.55563,-0.30162 1.27,-0.30162 0.71437,0 1.25941,0.30162 0.54504,0.30163 0.85196,0.8255 0.30691,0.51858 0.30691,1.18533 0,0.66675 -0.30691,1.18533 -0.30692,0.51329 -0.85196,0.80962 -0.54504,0.29104 -1.25941,0.29104 z m 0,-1.32291 q 0.27517,0 0.47625,-0.12171 0.20108,-0.12171 0.31221,-0.34396 0.11112,-0.22224 0.11112,-0.5027 0,-0.28575 -0.11112,-0.508 -0.11113,-0.22225 -0.31221,-0.34925 -0.20108,-0.127 -0.47625,-0.127 -0.27517,0 -0.48154,0.127 -0.20108,0.127 -0.3175,0.34925 -0.11112,0.22225 -0.11112,0.508 0,0.28046 0.11112,0.5027 0.11642,0.22225 0.3175,0.34396 0.20637,0.12171 0.48154,0.12171 z"
         id="path33401"
         style="font-size:10.5833px;line-height:1.25;font-family:'League Spartan';-inkscape-font-specification:'League Spartan, @wght=700';font-variation-settings:'wght' 700;word-spacing:0px;fill:#f2f2f2;stroke-width:0.264583" />
      <path
         d="m 393.54173,136.21482 -1.0107,2.51882 h -1.47637 l -1.43933,-4.34444 h 1.7092 l 0.69321,2.62466 1.00012,-2.54 h 1.05833 l 0.98425,2.54 0.69849,-2.62466 h 1.70921 l -1.43404,4.34444 h -1.47108 z"
         id="path33403"
         style="font-size:10.5833px;line-height:1.25;font-family:'League Spartan';-inkscape-font-specification:'League Spartan, @wght=700';font-variation-settings:'wght' 700;word-spacing:0px;fill:#f2f2f2;stroke-width:0.264583" />
      <path
         d="m 399.00271,138.86064 q -0.39158,0 -0.67733,-0.28046 -0.28046,-0.28574 -0.28046,-0.67733 0,-0.40216 0.28046,-0.68262 0.28575,-0.28575 0.67733,-0.28575 0.40216,0 0.68262,0.28575 0.28046,0.28046 0.28046,0.68262 0,0.39159 -0.28046,0.67733 -0.28046,0.28046 -0.68262,0.28046 z"
         id="path33405"
         style="font-size:10.5833px;line-height:1.25;font-family:'League Spartan';-inkscape-font-specification:'League Spartan, @wght=700';font-variation-settings:'wght' 700;word-spacing:0px;fill:#f2f2f2;stroke-width:0.264583" />
    </g>
  </g>
</svg>
