<?xml version="1.0" encoding="UTF-8" standalone="no"?>
<!-- Created with Inkscape (http://www.inkscape.org/) -->

<svg
   width="72.008537mm"
   height="9.1227303mm"
   viewBox="0 0 72.008537 9.1227303"
   version="1.1"
   id="svg5"
   inkscape:version="1.1.2 (0a00cf5339, 2022-02-04)"
   sodipodi:docname="logo.svg"
   xmlns:inkscape="http://www.inkscape.org/namespaces/inkscape"
   xmlns:sodipodi="http://sodipodi.sourceforge.net/DTD/sodipodi-0.dtd"
   xmlns="http://www.w3.org/2000/svg"
   xmlns:svg="http://www.w3.org/2000/svg">
  <sodipodi:namedview
     id="namedview7"
     pagecolor="#ffffff"
     bordercolor="#666666"
     borderopacity="1.0"
     inkscape:pageshadow="2"
     inkscape:pageopacity="0.0"
     inkscape:pagecheckerboard="0"
     inkscape:document-units="mm"
     showgrid="false"
     inkscape:zoom="1.2417658"
     inkscape:cx="29.393626"
     inkscape:cy="-87.375573"
     inkscape:window-width="1832"
     inkscape:window-height="912"
     inkscape:window-x="44"
     inkscape:window-y="88"
     inkscape:window-maximized="0"
     inkscape:current-layer="layer1" />
  <defs
     id="defs2" />
  <g
     inkscape:label="Layer 1"
     inkscape:groupmode="layer"
     id="layer1"
     transform="translate(-334.02736,-157.83754)">
    <g
       aria-label="ieltstudyflow."
       id="text77"
       style="font-weight:bold;font-size:10.5833px;line-height:1.25;font-family:'Ubuntu Mono';-inkscape-font-specification:'Ubuntu Mono, Bold';stroke-width:0.264583">
      <path
         d="m 336.65205,158.77943 q 0,0.381 -0.24342,0.60325 -0.24341,0.22225 -0.58208,0.22225 -0.33866,0 -0.58208,-0.22225 -0.23283,-0.22225 -0.23283,-0.60325 0,-0.39158 0.23283,-0.61383 0.24342,-0.22225 0.58208,-0.22225 0.33867,0 0.58208,0.22225 0.24342,0.22225 0.24342,0.61383 z m 1.93674,6.19123 q -0.40216,0.1905 -0.76199,0.254 -0.34925,0.0741 -0.64559,0.0741 -0.50799,0 -0.85724,-0.14816 -0.33867,-0.14817 -0.55033,-0.42333 -0.20109,-0.28575 -0.28575,-0.68792 -0.0847,-0.40216 -0.0847,-0.92075 v -1.83091 h -1.37583 v -1.07949 h 2.67758 v 3.07974 q 0,0.4445 0.15875,0.66674 0.16933,0.21167 0.55033,0.21167 0.17991,0 0.43391,-0.0423 0.254,-0.0529 0.5715,-0.20109 z"
         style="fill:#ffd42a"
         id="path1762" />
      <path
         d="m 339.2661,162.73759 q 0,-0.65617 0.20109,-1.15358 0.20108,-0.49742 0.52916,-0.8255 0.32808,-0.33867 0.75142,-0.508 0.42333,-0.16933 0.86783,-0.16933 1.10066,0 1.67216,0.65616 0.5715,0.64558 0.5715,1.89441 0,0.127 -0.0106,0.26458 0,0.13759 -0.0106,0.22225 h -3.22791 q 0,0.48684 0.40217,0.77258 0.40216,0.27517 1.03716,0.27517 0.39158,0 0.74083,-0.0847 0.35984,-0.0847 0.60325,-0.16933 l 0.17992,1.11125 q -0.33867,0.11641 -0.71967,0.1905 -0.381,0.0847 -0.85724,0.0847 -0.635,0 -1.143,-0.15875 -0.49742,-0.16933 -0.85725,-0.48683 -0.34925,-0.32808 -0.53975,-0.80433 -0.1905,-0.47625 -0.1905,-1.11124 z m 3.33374,-0.51859 q 0,-0.20108 -0.0529,-0.381 -0.0529,-0.19049 -0.16934,-0.33866 -0.11641,-0.14817 -0.29633,-0.23283 -0.17991,-0.0953 -0.4445,-0.0953 -0.254,0 -0.44449,0.0847 -0.17992,0.0847 -0.30692,0.23284 -0.11642,0.14816 -0.1905,0.33866 -0.0635,0.1905 -0.0847,0.39158 z"
         style="fill:#ffd42a"
         id="path1764" />
      <path
         d="m 349.17205,164.97066 q -0.0317,0.0212 -0.14816,0.0741 -0.10584,0.0529 -0.28575,0.11642 -0.17992,0.0529 -0.4445,0.0952 -0.254,0.0423 -0.58208,0.0423 -0.89958,0 -1.31233,-0.52916 -0.41275,-0.53975 -0.41275,-1.56633 v -4.22274 h -1.37583 v -1.07949 h 2.67758 v 5.39748 q 0,0.508 0.20108,0.68791 0.20108,0.17992 0.508,0.17992 0.39158,0 0.65616,-0.10583 0.26458,-0.10584 0.34925,-0.13759 z"
         style="fill:#ffd42a"
         id="path1766" />
      <path
         d="m 351.03469,161.28767 h -1.13241 v -1.07949 h 1.13241 v -1.24883 l 1.30175,-0.21167 v 1.4605 h 2.08491 v 1.07949 h -2.08491 v 2.01083 q 0,0.27517 0.0529,0.4445 0.0529,0.16933 0.14816,0.26458 0.0953,0.0953 0.23284,0.127 0.13758,0.0317 0.30691,0.0317 0.17992,0 0.32808,-0.0106 0.15875,-0.0106 0.29634,-0.0318 0.14816,-0.0317 0.29633,-0.0847 0.15875,-0.0529 0.33866,-0.13758 l 0.17992,1.12183 q -0.35983,0.14816 -0.78316,0.21166 -0.41275,0.0635 -0.80434,0.0635 -0.45508,0 -0.80433,-0.0741 -0.34924,-0.0741 -0.59266,-0.28575 -0.24342,-0.21166 -0.37042,-0.59266 -0.127,-0.39159 -0.127,-1.016 z"
         style="fill:#ffd42a"
         id="path1768" />
      <path
         d="m 357.2259,164.19808 q 0.47625,0 0.73025,-0.0635 0.254,-0.0741 0.254,-0.28575 0,-0.13758 -0.0847,-0.23283 -0.0741,-0.0953 -0.22224,-0.15875 -0.13759,-0.0741 -0.32809,-0.13758 -0.17991,-0.0635 -0.381,-0.127 -0.28574,-0.0847 -0.58208,-0.1905 -0.29633,-0.11642 -0.53975,-0.28575 -0.24341,-0.16933 -0.40216,-0.42333 -0.15875,-0.26459 -0.15875,-0.65617 0,-0.3175 0.11642,-0.59266 0.127,-0.28575 0.38099,-0.49742 0.26459,-0.22225 0.66675,-0.33866 0.40217,-0.127 0.96308,-0.127 0.48683,0 0.89958,0.0741 0.42334,0.0741 0.73025,0.21167 l -0.20108,1.10066 q -0.17992,-0.0529 -0.56092,-0.16933 -0.381,-0.127 -0.85724,-0.127 -0.49742,0 -0.67733,0.127 -0.16934,0.11641 -0.16934,0.254 0,0.11641 0.0741,0.21166 0.0847,0.0847 0.21166,0.15875 0.13758,0.0741 0.30692,0.14817 0.17991,0.0635 0.381,0.127 0.28574,0.0952 0.59266,0.21166 0.30692,0.11642 0.55033,0.29634 0.254,0.16933 0.41275,0.44449 0.15875,0.26459 0.15875,0.65617 0,0.30691 -0.11642,0.58208 -0.11641,0.27517 -0.39158,0.47625 -0.26458,0.20108 -0.6985,0.3175 -0.43391,0.11641 -1.06891,0.11641 -0.64558,0 -1.10066,-0.14816 -0.45508,-0.14817 -0.73025,-0.26459 l 0.20108,-1.09007 q 0.37042,0.14816 0.78317,0.27516 0.42333,0.127 0.85724,0.127 z"
         style="fill:#ffd42a"
         id="path1770" />
      <path
         d="m 361.61795,161.28767 h -1.13241 v -1.07949 h 1.13241 v -1.24883 l 1.30175,-0.21167 v 1.4605 h 2.08491 v 1.07949 h -2.08491 v 2.01083 q 0,0.27517 0.0529,0.4445 0.0529,0.16933 0.14816,0.26458 0.0952,0.0953 0.23283,0.127 0.13759,0.0317 0.30692,0.0317 0.17992,0 0.32808,-0.0106 0.15875,-0.0106 0.29634,-0.0318 0.14816,-0.0317 0.29633,-0.0847 0.15875,-0.0529 0.33866,-0.13758 l 0.17992,1.12183 q -0.35983,0.14816 -0.78316,0.21166 -0.41275,0.0635 -0.80434,0.0635 -0.45508,0 -0.80433,-0.0741 -0.34925,-0.0741 -0.59266,-0.28575 -0.24342,-0.21166 -0.37042,-0.59266 -0.127,-0.39159 -0.127,-1.016 z"
         style="fill:#f2f2f2"
         id="path1772" />
      <path
         d="m 370.03166,165.01299 q -0.35984,0.0952 -0.87842,0.1905 -0.508,0.0953 -1.11124,0.0953 -0.61383,0 -1.00542,-0.16933 -0.39158,-0.16933 -0.62441,-0.47625 -0.22225,-0.3175 -0.30692,-0.74083 -0.0847,-0.42333 -0.0847,-0.93133 v -2.77282 h 1.30174 v 2.60349 q 0,0.68791 0.15875,1.02658 0.16933,0.32808 0.64558,0.32808 0.29634,0 0.59267,-0.0529 v -3.90523 h 1.31233 z"
         style="fill:#f2f2f2"
         id="path1774" />
      <path
         d="m 372.30705,162.6635 q 0,0.66675 0.24341,1.09008 0.254,0.42333 0.80433,0.42333 0.15875,0 0.29634,-0.0106 0.13758,-0.0106 0.28574,-0.0317 v -2.70932 q -0.14816,-0.0847 -0.33866,-0.13759 -0.1905,-0.0635 -0.40217,-0.0635 -0.46566,0 -0.67733,0.37042 -0.21166,0.37041 -0.21166,1.06891 z m 2.93157,2.37066 q -0.35983,0.11642 -0.87841,0.1905 -0.51859,0.0741 -1.016,0.0741 -1.16416,0 -1.76741,-0.68791 -0.59267,-0.68792 -0.59267,-1.88383 0,-1.21708 0.49742,-1.91558 0.508,-0.70908 1.49224,-0.70908 0.26459,0 0.51859,0.0635 0.25399,0.0529 0.44449,0.15875 v -2.26482 l 1.30175,-0.22225 z"
         style="fill:#f2f2f2"
         id="path1776" />
      <path
         d="m 380.97475,160.20818 q -0.20108,0.69849 -0.39158,1.37583 -0.17992,0.66674 -0.381,1.31232 -0.20108,0.635 -0.43392,1.24883 -0.22225,0.61384 -0.48683,1.19592 -0.20108,0.42333 -0.40216,0.73024 -0.1905,0.30692 -0.43392,0.49742 -0.23283,0.20108 -0.52917,0.29633 -0.28574,0.0952 -0.67733,0.0952 -0.32808,0 -0.60324,-0.0529 -0.26459,-0.0529 -0.4445,-0.13759 l 0.24341,-1.09008 q 0.21167,0.0952 0.37042,0.127 0.16933,0.0423 0.35983,0.0423 0.381,0 0.61383,-0.254 0.23283,-0.254 0.37042,-0.60325 -0.46567,-0.93133 -0.93133,-2.12725 -0.46567,-1.20649 -0.84667,-2.6564 h 1.35467 q 0.0952,0.39158 0.21166,0.83608 0.127,0.4445 0.26458,0.88899 0.13759,0.4445 0.28575,0.87842 0.15875,0.42333 0.3175,0.79375 0.10584,-0.37042 0.22225,-0.79375 0.11642,-0.43392 0.22225,-0.86783 0.10583,-0.4445 0.20108,-0.889 0.10584,-0.4445 0.1905,-0.84666 z"
         style="fill:#f2f2f2"
         id="path1778" />
      <path
         d="m 382.74214,165.18233 v -3.89466 h -1.09008 v -1.07949 h 1.09008 v -0.28575 q 0,-0.60325 0.16933,-0.99483 0.17992,-0.40217 0.47625,-0.635 0.29633,-0.24342 0.67733,-0.33867 0.381,-0.10583 0.78317,-0.10583 0.41274,0 0.84666,0.0741 0.43392,0.0741 0.78316,0.24342 l -0.22224,1.05833 q -0.24342,-0.0847 -0.61384,-0.16933 -0.35983,-0.0952 -0.68791,-0.0952 -0.17992,0 -0.34925,0.0317 -0.15875,0.0318 -0.28575,0.13758 -0.11642,0.10583 -0.1905,0.30692 -0.0741,0.19049 -0.0741,0.50799 v 0.26459 h 2.04258 v 1.07949 h -2.04258 v 3.89466 z"
         style="fill:#f2f2f2"
         id="path1780" />
      <path
         d="m 391.50509,164.97066 q -0.0317,0.0212 -0.14816,0.0741 -0.10584,0.0529 -0.28575,0.11642 -0.17992,0.0529 -0.4445,0.0952 -0.254,0.0423 -0.58208,0.0423 -0.89958,0 -1.31233,-0.52916 -0.41275,-0.53975 -0.41275,-1.56633 v -4.22274 h -1.37583 v -1.07949 h 2.67757 v 5.39748 q 0,0.508 0.20109,0.68791 0.20108,0.17992 0.508,0.17992 0.39158,0 0.65616,-0.10583 0.26458,-0.10584 0.34925,-0.13759 z"
         style="fill:#f2f2f2"
         id="path1782" />
      <path
         d="m 396.84964,162.68467 q 0,0.59266 -0.16933,1.0795 -0.16934,0.47624 -0.47625,0.82549 -0.30692,0.34925 -0.74083,0.53975 -0.42334,0.1905 -0.9525,0.1905 -0.52917,0 -0.96308,-0.1905 -0.42333,-0.1905 -0.74083,-0.53975 -0.30692,-0.34925 -0.47625,-0.82549 -0.16933,-0.48684 -0.16933,-1.0795 0,-0.58208 0.16933,-1.05833 0.17992,-0.48683 0.48683,-0.8255 0.3175,-0.34925 0.75142,-0.52916 0.43391,-0.1905 0.94191,-0.1905 0.51858,0 0.94191,0.1905 0.43392,0.17991 0.74083,0.52916 0.3175,0.33867 0.48684,0.8255 0.16933,0.47625 0.16933,1.05833 z m -3.36549,0.0106 q 0,0.66675 0.23283,1.0795 0.24342,0.41275 0.77258,0.41275 0.508,0 0.762,-0.41275 0.26458,-0.41275 0.26458,-1.0795 0,-0.66675 -0.24341,-1.06891 -0.23284,-0.41275 -0.762,-0.41275 -0.508,0 -0.77258,0.41275 -0.254,0.40216 -0.254,1.06891 z"
         style="fill:#f2f2f2"
         id="path1784" />
      <path
         d="m 400.55377,165.18233 q -0.11641,-0.32809 -0.22225,-0.60325 -0.0953,-0.27517 -0.1905,-0.52917 -0.0847,-0.26458 -0.17991,-0.53974 -0.0847,-0.28575 -0.17992,-0.62442 -0.10583,0.33867 -0.1905,0.61383 -0.0847,0.26459 -0.17991,0.52917 -0.0847,0.26458 -0.17992,0.53975 -0.0953,0.27516 -0.23283,0.61383 h -0.98425 q -0.127,-0.46567 -0.24342,-1.02658 -0.10583,-0.5715 -0.20108,-1.2065 -0.0952,-0.64558 -0.16933,-1.33349 -0.0741,-0.68792 -0.13758,-1.40758 h 1.11124 q 0.0423,0.92074 0.0847,1.79916 0.0529,0.87841 0.17992,1.80974 0.13758,-0.40216 0.23283,-0.74083 0.10583,-0.34925 0.17991,-0.65616 0.0847,-0.3175 0.14817,-0.60325 0.0741,-0.29633 0.14817,-0.60325 h 0.94191 q 0.0635,0.30692 0.127,0.60325 0.0741,0.28575 0.14817,0.60325 0.0847,0.30691 0.16933,0.65616 0.0952,0.33867 0.22225,0.74083 0.0635,-0.48683 0.10583,-0.93133 0.0423,-0.4445 0.0635,-0.87841 0.0317,-0.4445 0.0423,-0.87842 0.0212,-0.4445 0.0423,-0.92074 h 1.11124 q -0.11641,1.44991 -0.32808,2.73049 -0.20108,1.28058 -0.45508,2.24366 z"
         style="fill:#f2f2f2"
         id="path1786" />
      <path
         d="m 406.0359,164.34625 q 0,0.46566 -0.28575,0.70908 -0.28575,0.24341 -0.65617,0.24341 -0.19049,0 -0.35983,-0.0635 -0.16933,-0.0635 -0.30691,-0.17991 -0.127,-0.127 -0.21167,-0.29633 -0.0741,-0.17992 -0.0741,-0.41275 0,-0.22225 0.0741,-0.39159 0.0847,-0.17991 0.21167,-0.29633 0.13758,-0.11641 0.30691,-0.17991 0.16934,-0.0635 0.35983,-0.0635 0.37042,0 0.65617,0.24341 0.28575,0.24342 0.28575,0.68792 z"
         style="fill:#f2f2f2"
         id="path1788" />
    </g>
  </g>
</svg>
