<?xml version="1.0" encoding="UTF-8" standalone="no"?>
<!-- Created with Inkscape (http://www.inkscape.org/) -->

<svg
   width="62.136433mm"
   height="25.095814mm"
   viewBox="0 0 62.136432 25.095814"
   version="1.1"
   id="svg5"
   inkscape:version="1.1.2 (0a00cf5339, 2022-02-04)"
   sodipodi:docname="score.svg"
   xmlns:inkscape="http://www.inkscape.org/namespaces/inkscape"
   xmlns:sodipodi="http://sodipodi.sourceforge.net/DTD/sodipodi-0.dtd"
   xmlns="http://www.w3.org/2000/svg"
   xmlns:svg="http://www.w3.org/2000/svg">
  <sodipodi:namedview
     id="namedview7"
     pagecolor="#ffffff"
     bordercolor="#666666"
     borderopacity="1.0"
     inkscape:pageshadow="2"
     inkscape:pageopacity="0.0"
     inkscape:pagecheckerboard="0"
     inkscape:document-units="mm"
     showgrid="false"
     inkscape:zoom="0.64"
     inkscape:cx="-16.40625"
     inkscape:cy="53.90625"
     inkscape:window-width="894"
     inkscape:window-height="912"
     inkscape:window-x="982"
     inkscape:window-y="88"
     inkscape:window-maximized="0"
     inkscape:current-layer="layer1" />
  <defs
     id="defs2" />
  <g
     inkscape:label="Layer 1"
     inkscape:groupmode="layer"
     id="layer1"
     transform="translate(-24.946193,-152.17039)">
    <g
       aria-label="8.5+"
       id="text2211"
       style="font-weight:bold;font-size:34.3099px;line-height:1.25;font-family:'Roboto Slab';-inkscape-font-specification:'Roboto Slab, Bold';stroke-width:0.85775;fill:#ffffff;fill-opacity:0.7304908">
      <path
         d="m 41.012204,158.98882 q 0,1.82606 -0.971667,3.2333 -0.971667,1.40724 -2.663707,2.19463 1.943334,0.82089 3.065777,2.3454 1.122443,1.52451 1.122443,3.4846 0,3.38408 -2.295145,5.21015 -2.295145,1.80931 -5.997531,1.80931 -3.719139,0 -6.031037,-1.80931 -2.295144,-1.82607 -2.295144,-5.21015 0,-1.97684 1.10569,-3.4846 1.122443,-1.52451 3.065777,-2.3454 -1.708794,-0.78739 -2.663708,-2.19463 -0.954914,-1.40724 -0.954914,-3.2333 0,-3.25006 2.127615,-5.02587 2.127616,-1.79256 5.612215,-1.79256 3.484599,0 5.628968,1.79256 2.144368,1.77581 2.144368,5.02587 z m -4.322243,10.92287 q 0,-1.64178 -0.971667,-2.6302 -0.954914,-0.98842 -2.479426,-0.98842 -1.524512,0 -2.462673,0.98842 -0.938162,0.98842 -0.938162,2.6302 0,1.67529 0.938162,2.64696 0.938161,0.95491 2.496179,0.95491 1.524512,0 2.462673,-0.97166 0.954914,-0.97167 0.954914,-2.63021 z M 36.120364,159.2066 q 0,-1.47425 -0.787386,-2.36215 -0.770632,-0.90466 -2.09411,-0.90466 -1.34023,0 -2.09411,0.8879 -0.737127,0.87115 -0.737127,2.37891 0,1.52452 0.75388,2.42917 0.75388,0.8879 2.110863,0.8879 1.323477,0 2.077357,-0.8879 0.770633,-0.90465 0.770633,-2.42917 z"
         id="path2883"
         style="fill:#ffffff;fill-opacity:0.7304908" />
      <path
         d="m 49.53942,176.9144 h -4.875088 v -4.28874 h 4.875088 z"
         id="path2885"
         style="fill:#ffffff;fill-opacity:0.7304908" />
      <path
         d="m 65.220117,158.08416 -0.435575,-1.64178 h -6.567129 l -0.686868,5.62897 q 0.686868,-0.50259 1.641782,-0.82089 0.954914,-0.33506 2.110863,-0.35182 3.518105,-0.0503 5.444686,2.12762 1.926581,2.17788 1.926581,6.06454 0,3.51811 -2.127616,5.84676 -2.110863,2.32865 -6.098048,2.32865 -3.350576,0 -5.746238,-1.82607 -2.395662,-1.84281 -2.311897,-5.05937 l 0.0335,-0.0838 4.690807,-0.23454 q 0,1.62503 0.921408,2.54644 0.921409,0.90465 2.412415,0.90465 1.708794,0 2.529685,-1.22296 0.820891,-1.22296 0.820891,-3.16629 0,-2.11086 -0.87115,-3.38408 -0.87115,-1.27322 -2.596696,-1.27322 -1.390489,0 -2.144369,0.51934 -0.737127,0.51934 -1.055431,1.40724 l -4.322243,-0.2848 1.407242,-13.58659 h 14.038913 v 5.56196 z"
         id="path2887"
         style="fill:#ffffff;fill-opacity:0.7304908" />
      <path
         d="m 81.06834,163.31106 h 6.014284 v 4.22173 H 81.06834 v 6.93569 h -4.640548 v -6.93569 H 70.36325 v -4.22173 h 6.064542 v -6.60064 h 4.640548 z"
         id="path2889"
         style="fill:#ffffff;fill-opacity:0.7304908" />
    </g>
  </g>
</svg>
